 <svg id="Layer_1" data-name="Layer 1" xmlns="http://www.w3.org/2000/svg" viewBox="0 0 180 180"><defs><style>.cls-1{fill:none;}.cls-2{fill:#35464e;}</style></defs><rect class="cls-1" x="-8.01" y="-8.01" width="196.02" height="196.02"/><path class="cls-2" d="M73.73,26.08c-7.08-4.61-13.91-3.18-17.92,4C51.37,37.92,50.76,46.72,50,55.47a2,2,0,0,0,1.85,2.35,67.62,67.62,0,0,0,20.4,1.34c15.27-1.64,30.08-5.09,42.58-14.58,1.86-1.41,2.28-2.32,1.3-4.4a72.17,72.17,0,0,0-6.26-10.32c-2.59-3.73-4.59-7.29-8.25-10.14a9,9,0,0,0-9.94-.37c-5,2.91-7.16,5.92-14.67,6.4,1.76,1.61,3.72,2,6.42,2.11A12.31,12.31,0,0,1,73.73,26.08Z"/><path class="cls-2" d="M37.16,59.17c-5.17.8-10.11,3-6.6,8.06,1.8,2.6,6.49,5.36,12.54,7.1a76.56,76.56,0,0,0,17.13,2.58c17.52.54,32.43-5.25,45.2-10.87,17.88-7.86,33.22-18.29,31.82-23.1-1.46-5-12.07-3.13-18.81-1.09,0,0,2.65,3.5,3.33,4.65s-.84,2.73-2,3.81c-3.72,3.38-8,5.85-16.89,9.7C98.31,62,80,70.58,50.67,65.34c0,0-2.4-.33-2.31-2.28a28,28,0,0,1,.5-3.89A51.06,51.06,0,0,0,37.16,59.17Z"/><path class="cls-2" d="M131.35,60.9h0v43.81l-35.21,21V162c37.67-3.7,54.73-29.61,54.47-57.78C150.46,87,142.66,71.68,131.35,60.9Z"/><path class="cls-2" d="M55.6,78.74a78,78,0,0,1-12.24-2.12,57.81,57.81,0,0,0-7.45,27.56c-.27,28.17,17.14,54.08,54.82,57.78v-36.3l-35.12-21Z"/><path class="cls-2" d="M125.39,101.36V63.25L121,60.6c-6,3.43-11.76,6.08-13.86,7a20.75,20.75,0,0,1,6,14.67c0,11.28-8.79,20.42-19.65,20.42S73.79,93.58,73.79,82.3a21.45,21.45,0,0,1,.4-4.11,78.89,78.89,0,0,1-11.68.89l-1,0v22.3l32,19.06Z"/></svg>
